<?xml version="1.0" standalone="no"?>
<!DOCTYPE svg PUBLIC "-//W3C//DTD SVG 20010904//EN"
 "http://www.w3.org/TR/2001/REC-SVG-20010904/DTD/svg10.dtd">
<svg version="1.0" xmlns="http://www.w3.org/2000/svg"
 width="770.000000pt" height="770.000000pt" viewBox="0 0 770.000000 770.000000"
 preserveAspectRatio="xMidYMid meet">
<metadata>
Created by potrace 1.14, written by Peter Selinger 2001-2017
</metadata>
<g transform="translate(0.000000,770.000000) scale(0.100000,-0.100000)"
fill="#000000" stroke="none">
<path d="M3475 7693 c-586 -49 -976 -157 -1234 -341 -105 -75 -183 -144 -341
-298 -74 -73 -146 -137 -159 -142 -20 -7 -41 -2 -99 25 -114 53 -234 77 -387
77 -116 0 -139 -3 -210 -28 -278 -95 -499 -332 -549 -586 -8 -41 -17 -167 -21
-280 -4 -113 -13 -235 -21 -272 -39 -191 -53 -477 -34 -713 17 -210 58 -359
150 -553 175 -366 483 -677 955 -962 134 -82 161 -108 188 -185 17 -46 21
-106 52 -675 8 -151 17 -309 20 -350 3 -41 7 -118 10 -170 3 -52 10 -171 15
-265 5 -93 14 -255 20 -360 14 -260 15 -270 61 -525 40 -221 41 -227 29 -325
-25 -212 -28 -252 -19 -315 21 -142 98 -239 253 -316 109 -53 200 -77 372 -98
231 -28 453 -38 769 -34 300 4 313 5 404 31 116 34 235 85 318 137 35 22 67
40 70 40 3 0 26 -18 51 -41 87 -77 161 -102 365 -126 213 -25 789 -25 992 0
336 41 476 72 603 133 160 77 271 210 272 327 0 18 -20 130 -46 249 l-47 217
27 93 c28 100 56 293 56 393 0 33 4 65 8 72 4 7 56 19 115 28 379 56 556 225
583 557 13 157 -87 621 -286 1333 -43 154 -89 323 -103 375 l-26 95 -3 620 -3
620 24 105 c47 205 30 466 -60 930 -121 616 -448 1109 -875 1315 -146 72 -393
138 -649 176 -120 17 -187 19 -850 17 -396 -1 -738 -3 -760 -5z m1404 -257
c290 -29 464 -75 676 -181 274 -136 537 -382 625 -583 87 -201 152 -452 187
-723 16 -120 18 -219 16 -924 -2 -434 -5 -886 -9 -1002 l-6 -213 213 -762
c208 -743 213 -765 214 -858 0 -110 -12 -159 -58 -227 -39 -58 -99 -93 -212
-124 -264 -71 -491 -2 -555 169 -33 87 -27 140 50 438 l70 272 -10 129 c-24
294 -62 588 -79 618 -16 28 -94 95 -110 95 -30 0 -27 -291 4 -550 32 -264 32
-287 -5 -383 -60 -152 -110 -426 -110 -596 0 -151 35 -210 202 -342 85 -67 90
-73 84 -102 -2 -18 -21 -167 -41 -332 l-37 -300 35 -200 35 -200 -39 -36
c-129 -120 -418 -202 -758 -215 -214 -8 -808 20 -858 41 -52 22 -100 61 -118
95 -21 42 -19 132 7 219 18 62 22 102 23 214 l0 138 -37 34 c-46 42 -102 59
-195 58 -59 0 -83 -5 -130 -29 -82 -41 -97 -67 -101 -169 -3 -72 1 -101 32
-213 41 -147 43 -180 16 -240 -56 -124 -160 -157 -570 -183 -309 -20 -495 -4
-770 66 -156 39 -227 63 -322 107 l-68 31 0 244 c0 254 -14 422 -65 773 -29
198 -32 247 -45 590 -6 146 -17 445 -26 665 -8 220 -19 488 -23 595 -6 181 -9
199 -33 252 -50 107 -139 184 -483 418 -318 215 -456 335 -567 491 -134 188
-196 369 -233 688 -23 189 -17 527 10 621 3 8 16 141 30 295 25 277 26 281 58
335 53 90 190 222 276 265 200 100 409 82 556 -47 61 -54 85 -108 85 -194 0
-134 -46 -235 -211 -466 -133 -187 -153 -231 -175 -387 -22 -160 -15 -409 16
-555 48 -228 126 -421 206 -512 115 -132 229 -178 286 -116 55 59 61 132 34
453 -82 962 -84 1149 -15 1466 78 361 207 549 512 748 327 212 680 297 1492
359 130 10 879 -3 1024 -18z"/>
<path d="M2535 6866 c-52 -24 -102 -72 -132 -129 -27 -49 -24 -179 4 -233 26
-49 92 -110 142 -132 55 -24 156 -20 214 8 88 42 157 149 157 242 0 95 -62
194 -149 240 -71 37 -162 39 -236 4z"/>
<path d="M5350 6843 c-131 -45 -211 -152 -212 -280 -1 -197 208 -310 405 -220
190 87 243 312 105 444 -72 70 -194 93 -298 56z"/>
<path d="M2874 6000 c-172 -25 -321 -134 -396 -289 -57 -119 -59 -160 -56
-898 3 -659 4 -669 26 -734 61 -181 210 -316 390 -355 99 -20 2265 -21 2363 0
182 39 330 174 390 358 l24 73 0 695 c0 758 1 747 -59 870 -41 86 -140 186
-227 228 -126 63 -94 61 -1304 60 -605 0 -1123 -4 -1151 -8z m1282 -314 c68
-101 125 -177 137 -180 10 -2 27 -1 38 2 10 4 65 79 122 167 139 217 126 217
276 5 62 -88 123 -165 134 -171 37 -20 61 6 161 170 110 181 104 177 201 140
72 -27 153 -101 190 -176 l30 -58 0 -725 0 -725 -27 -55 c-37 -75 -100 -137
-177 -173 -52 -25 -65 -28 -72 -16 -5 8 -66 95 -136 194 -135 190 -150 203
-215 191 -31 -6 -46 -23 -148 -167 -67 -95 -117 -156 -122 -151 -5 5 -55 80
-111 168 -86 133 -107 160 -129 162 -30 4 -27 7 -197 -196 l-112 -132 -68 87
c-37 49 -93 123 -125 165 -32 43 -67 80 -78 84 -27 8 -42 -8 -173 -180 -60
-80 -113 -145 -116 -145 -4 -1 -53 61 -109 137 -135 180 -146 192 -186 192
-17 0 -37 -6 -43 -14 -7 -8 -52 -103 -101 -213 -81 -179 -92 -198 -112 -195
-86 12 -181 71 -232 145 -70 102 -67 66 -67 837 0 686 0 697 21 753 43 115
166 214 278 224 l57 5 118 -176 c99 -149 121 -176 142 -176 28 0 28 -1 145
199 72 123 89 146 110 146 19 0 43 -29 131 -155 60 -85 116 -157 126 -161 44
-15 63 2 170 160 100 148 127 181 145 181 4 0 60 -78 124 -174z"/>
</g>
</svg>
